{
    "asset" : {
        "generator" : "Khronos glTF Blender I/O v3.2.43",
        "version" : "2.0"
    },
    "scene" : 0,
    "scenes" : [
        {
            "name" : "Scene",
            "nodes" : [
                0,
                1,
                2,
                3,
                4
            ]
        }
    ],
    "nodes" : [
        {
            "name" : "boots.ref.side",
            "rotation" : [
                0.5,
                0.5,
                -0.5,
                0.5
            ],
            "translation" : [
                0,
                1.855756163597107,
                1.1000182628631592
            ]
        },
        {
            "name" : "boots.ref.sole",
            "rotation" : [
                1,
                0,
                0,
                7.549790126404332e-08
            ],
            "scale" : [
                0.9937111139297485,
                0.9750482439994812,
                0.8159324526786804
            ],
            "translation" : [
                0.00027572084218263626,
                0,
                1.1460702419281006
            ]
        },
        {
            "mesh" : 0,
            "name" : "boots.body"
        },
        {
            "mesh" : 1,
            "name" : "boots.eyelet"
        },
        {
            "name" : "boots.tie"
        }
    ],
    "meshes" : [
        {
            "extras" : {
                "targetNames" : [
                    "break_in"
                ]
            },
            "name" : "Cube.002",
            "primitives" : [
                {
                    "attributes" : {
                        "POSITION" : 0,
                        "NORMAL" : 1,
                        "TEXCOORD_0" : 2
                    },
                    "indices" : 3,
                    "targets" : [
                        {
                            "POSITION" : 4,
                            "NORMAL" : 5
                        }
                    ]
                }
            ],
            "weights" : [
                1
            ]
        },
        {
            "name" : "Torus",
            "primitives" : [
                {
                    "attributes" : {
                        "POSITION" : 6,
                        "NORMAL" : 7,
                        "TEXCOORD_0" : 8
                    },
                    "indices" : 9
                }
            ]
        }
    ],
    "accessors" : [
        {
            "bufferView" : 0,
            "componentType" : 5126,
            "count" : 506,
            "max" : [
                0.05508864298462868,
                0.2259676605463028,
                0.18124575912952423
            ],
            "min" : [
                -0.056957412511110306,
                -0.0014563469449058175,
                -0.05428430065512657
            ],
            "type" : "VEC3"
        },
        {
            "bufferView" : 1,
            "componentType" : 5126,
            "count" : 506,
            "type" : "VEC3"
        },
        {
            "bufferView" : 2,
            "componentType" : 5126,
            "count" : 506,
            "type" : "VEC2"
        },
        {
            "bufferView" : 3,
            "componentType" : 5123,
            "count" : 2511,
            "type" : "SCALAR"
        },
        {
            "bufferView" : 4,
            "componentType" : 5126,
            "count" : 506,
            "max" : [
                0.06295494735240936,
                0.0005037933588027954,
                0.002567082643508911
            ],
            "min" : [
                0.060598645359277725,
                -0.0019183903932571411,
                -0.00010412558913230896
            ],
            "type" : "VEC3"
        },
        {
            "bufferView" : 5,
            "componentType" : 5126,
            "count" : 506,
            "type" : "VEC3"
        },
        {
            "bufferView" : 6,
            "componentType" : 5126,
            "count" : 1008,
            "max" : [
                0.10030648112297058,
                0.1986302137374878,
                0.10463773459196091
            ],
            "min" : [
                0.022893548011779785,
                0.0730791687965393,
                0.0328788198530674
            ],
            "type" : "VEC3"
        },
        {
            "bufferView" : 7,
            "componentType" : 5126,
            "count" : 1008,
            "type" : "VEC3"
        },
        {
            "bufferView" : 8,
            "componentType" : 5126,
            "count" : 1008,
            "type" : "VEC2"
        },
        {
            "bufferView" : 9,
            "componentType" : 5123,
            "count" : 4608,
            "type" : "SCALAR"
        }
    ],
    "bufferViews" : [
        {
            "buffer" : 0,
            "byteLength" : 6072,
            "byteOffset" : 0
        },
        {
            "buffer" : 0,
            "byteLength" : 6072,
            "byteOffset" : 6072
        },
        {
            "buffer" : 0,
            "byteLength" : 4048,
            "byteOffset" : 12144
        },
        {
            "buffer" : 0,
            "byteLength" : 5022,
            "byteOffset" : 16192
        },
        {
            "buffer" : 0,
            "byteLength" : 6072,
            "byteOffset" : 21216
        },
        {
            "buffer" : 0,
            "byteLength" : 6072,
            "byteOffset" : 27288
        },
        {
            "buffer" : 0,
            "byteLength" : 12096,
            "byteOffset" : 33360
        },
        {
            "buffer" : 0,
            "byteLength" : 12096,
            "byteOffset" : 45456
        },
        {
            "buffer" : 0,
            "byteLength" : 8064,
            "byteOffset" : 57552
        },
        {
            "buffer" : 0,
            "byteLength" : 9216,
            "byteOffset" : 65616
        }
    ],
    "buffers" : [
        {
            "byteLength" : 74832,
            "uri" : "data:application/octet-stream;base64,"
        }
    ]
}
