{"accessors" : [{"bufferView" : 0, "byteOffset" : 0, "componentType" : 5123, "count" : 672, "type" : "SCALAR", "max" : [559], "min" : [0]}, {"bufferView" : 1, "byteOffset" : 0, "componentType" : 5126, "count" : 560, "type" : "VEC3", "max" : [1, 4, 0.5], "min" : [-1, -4, -0.5], "name" : "POSITION"}, {"bufferView" : 1, "byteOffset" : 12, "componentType" : 5126, "count" : 560, "type" : "VEC3", "max" : [1.0000044107437134, 1.0000044107437134, 1.0000044107437134], "min" : [-1.0000044107437134, -1.0000044107437134, -1.0000044107437134], "name" : "NORMAL"}, {"bufferView" : 1, "byteOffset" : 24, "componentType" : 5126, "count" : 560, "type" : "VEC2", "max" : [0.875, 1], "min" : [0.125, 0], "name" : "TEXCOORD_0"}, {"bufferView" : 0, "byteOffset" : 1344, "componentType" : 5123, "count" : 1086, "type" : "SCALAR", "max" : [887], "min" : [0]}, {"bufferView" : 2, "byteOffset" : 0, "componentType" : 5126, "count" : 888, "type" : "VEC3", "max" : [4.0809326171875, 1.0362775325775146, 3.9929404258728027], "min" : [-3.7528226185509284E-16, -0.6213646531105042, -4.073362350463867], "name" : "POSITION"}, {"bufferView" : 2, "byteOffset" : 12, "componentType" : 5126, "count" : 888, "type" : "VEC3", "max" : [0.9310228824615479, 1.0000044107437134, 0.9221915602684021], "min" : [-0.7745814323425293, -0.9987009763717651, -0.966569185256958], "name" : "NORMAL"}, {"bufferView" : 2, "byteOffset" : 24, "componentType" : 5126, "count" : 888, "type" : "VEC2", "max" : [1, 1], "min" : [0, 0], "name" : "TEXCOORD_0"}, {"bufferView" : 0, "byteOffset" : 3516, "componentType" : 5123, "count" : 300, "type" : "SCALAR", "max" : [230], "min" : [0]}, {"bufferView" : 3, "byteOffset" : 0, "componentType" : 5126, "count" : 231, "type" : "VEC3", "max" : [0.5533815622329712, 0.45007696747779846, -2.691572427749634], "min" : [-0.5533815622329712, -0.6263217329978943, -4.124156951904297], "name" : "POSITION"}, {"bufferView" : 3, "byteOffset" : 12, "componentType" : 5126, "count" : 231, "type" : "VEC3", "max" : [0.9612106680870056, 0.9709500670433044, 0.5619240999221802], "min" : [-0.9612106680870056, -0.9999648928642273, -0.9979318380355835], "name" : "NORMAL"}, {"bufferView" : 3, "byteOffset" : 24, "componentType" : 5126, "count" : 231, "type" : "VEC2", "max" : [0.75, 0.625], "min" : [0.6249999403953552, 0.125], "name" : "TEXCOORD_0"}], "asset" : {"generator" : "Aspose.3D 22.10", "version" : "2.0"}, "buffers" : [{"uri" : "data:application/octet-stream;base64,", "byteLength" : 69988}], "bufferViews" : [{"buffer" : 0, "byteOffset" : 0, "byteLength" : 4116, "target" : 34963}, {"buffer" : 0, "byteOffset" : 4120, "byteLength" : 21504, "byteStride" : 32, "target" : 34962}, {"buffer" : 0, "byteOffset" : 25628, "byteLength" : 34752, "byteStride" : 32, "target" : 34962}, {"buffer" : 0, "byteOffset" : 60384, "byteLength" : 9600, "byteStride" : 32, "target" : 34962}], "materials" : [{"name" : "Material", "pbrMetallicRoughness" : {"baseColorFactor" : [0.800000011920929, 0.800000011920929, 0.800000011920929, 1], "metallicFactor" : 0, "roughnessFactor" : 0.4000000059604645}, "emissiveFactor" : [0, 0, 0], "alphaMode" : "OPAQUE", "doubleSided" : true}], "meshes" : [{"primitives" : [{"attributes" : {"POSITION" : 1, "NORMAL" : 2, "TEXCOORD_0" : 3}, "indices" : 0, "material" : 0, "mode" : 4}]}, {"primitives" : [{"attributes" : {"POSITION" : 5, "NORMAL" : 6, "TEXCOORD_0" : 7}, "indices" : 4, "mode" : 4}]}, {"primitives" : [{"attributes" : {"POSITION" : 9, "NORMAL" : 10, "TEXCOORD_0" : 11}, "indices" : 8, "mode" : 4}]}], "nodes" : [{"mesh" : 0, "name" : "simple.frame"}, {"matrix" : [1, 0, 0, 0, 0, -1.3435885648505064E-07, 1.0000001343588565, 0, 0, -1.0000001343588565, -1.3435885648505064E-07, 0, 0, 0, 0, 1], "mesh" : 1, "name" : "simple.body"}, {"matrix" : [1, 0, 0, 0, 0, -1.3435885648505064E-07, 1.0000001343588565, 0, 0, -1.0000001343588565, -1.3435885648505064E-07, 0, 0, 0, 0, 1], "mesh" : 2, "name" : "simple.hair"}], "scene" : 0, "scenes" : [{"nodes" : [0, 1, 2]}]}