{"accessors" : [{"bufferView" : 0, "byteOffset" : 0, "componentType" : 5123, "count" : 432, "type" : "SCALAR", "max" : [359], "min" : [0]}, {"bufferView" : 1, "byteOffset" : 0, "componentType" : 5126, "count" : 360, "type" : "VEC3", "max" : [1, 4, 0.5], "min" : [-1, -4, -0.5], "name" : "POSITION"}, {"bufferView" : 1, "byteOffset" : 12, "componentType" : 5126, "count" : 360, "type" : "VEC3", "max" : [1.0000044107437134, 1.0000044107437134, 1.0000044107437134], "min" : [-1.0000044107437134, -1.0000044107437134, -1.0000044107437134], "name" : "NORMAL"}, {"bufferView" : 1, "byteOffset" : 24, "componentType" : 5126, "count" : 360, "type" : "VEC2", "max" : [0.875, 1], "min" : [0.125, 0], "name" : "TEXCOORD_0"}, {"bufferView" : 0, "byteOffset" : 864, "componentType" : 5123, "count" : 3084, "type" : "SCALAR", "max" : [2522], "min" : [0]}, {"bufferView" : 2, "byteOffset" : 0, "componentType" : 5126, "count" : 2523, "type" : "VEC3", "max" : [0.8543854355812073, 1.6668401956558228, 0.18000218272209167], "min" : [-0.8543854355812073, 0.03233778476715088, -0.12448454648256302], "name" : "POSITION"}, {"bufferView" : 2, "byteOffset" : 12, "componentType" : 5126, "count" : 2523, "type" : "VEC3", "max" : [0.9519282579421997, 1.0000044107437134, 1.0000044107437134], "min" : [-0.9519282579421997, -0.9985857009887695, -1.0000044107437134], "name" : "NORMAL"}, {"bufferView" : 2, "byteOffset" : 24, "componentType" : 5126, "count" : 2523, "type" : "VEC2", "max" : [0.875, 1], "min" : [0, 0], "name" : "TEXCOORD_0"}, {"bufferView" : 0, "byteOffset" : 7032, "componentType" : 5123, "count" : 12, "type" : "SCALAR", "max" : [9], "min" : [0]}, {"bufferView" : 3, "byteOffset" : 0, "componentType" : 5126, "count" : 10, "type" : "VEC3", "max" : [0.059368547052145004, 1.584458827972412, 0.05592280998826027], "min" : [-0.059368547052145004, 1.5579686164855957, 0.04556018114089966], "name" : "POSITION"}, {"bufferView" : 3, "byteOffset" : 12, "componentType" : 5126, "count" : 10, "type" : "VEC3", "max" : [0.03169333189725876, -0.3689691126346588, -0.928905725479126], "min" : [-0.03169363737106323, -0.368969202041626, -0.9289059042930603], "name" : "NORMAL"}, {"bufferView" : 3, "byteOffset" : 24, "componentType" : 5126, "count" : 10, "type" : "VEC2", "max" : [1, 1], "min" : [0, 0], "name" : "TEXCOORD_0"}, {"bufferView" : 0, "byteOffset" : 7056, "componentType" : 5123, "count" : 12, "type" : "SCALAR", "max" : [8], "min" : [0]}, {"bufferView" : 4, "byteOffset" : 0, "componentType" : 5126, "count" : 9, "type" : "VEC3", "max" : [0.03305605426430702, 1.5174622535705566, 0.06887740641832352], "min" : [-0.03305605426430702, 1.47967529296875, 0.06550769507884979], "name" : "POSITION"}, {"bufferView" : 4, "byteOffset" : 12, "componentType" : 5126, "count" : 9, "type" : "VEC3", "max" : [0.008243301883339882, -0.08005017787218094, -0.99676114320755], "min" : [-0.008243301883339882, -0.08005299419164658, -0.9967950582504272], "name" : "NORMAL"}, {"bufferView" : 4, "byteOffset" : 24, "componentType" : 5126, "count" : 9, "type" : "VEC2", "max" : [1, 1], "min" : [0.5, 0], "name" : "TEXCOORD_0"}, {"bufferView" : 0, "byteOffset" : 7080, "componentType" : 5123, "count" : 24, "type" : "SCALAR", "max" : [18], "min" : [0]}, {"bufferView" : 5, "byteOffset" : 0, "componentType" : 5126, "count" : 19, "type" : "VEC3", "max" : [0.06498858332633972, 1.5970131158828735, 0.046825654804706573], "min" : [-0.06498858332633972, 1.5829354524612427, 0.038582365959882736], "name" : "POSITION"}, {"bufferView" : 5, "byteOffset" : 12, "componentType" : 5126, "count" : 19, "type" : "VEC3", "max" : [0.1221814826130867, -0.45881956815719604, -0.8525489568710327], "min" : [-0.1221814975142479, -0.5081740021705627, -0.8876104950904846], "name" : "NORMAL"}, {"bufferView" : 5, "byteOffset" : 24, "componentType" : 5126, "count" : 19, "type" : "VEC2", "max" : [1, 1], "min" : [0, 0], "name" : "TEXCOORD_0"}, {"bufferView" : 0, "byteOffset" : 7128, "componentType" : 5123, "count" : 768, "type" : "SCALAR", "max" : [614], "min" : [0]}, {"bufferView" : 6, "byteOffset" : 0, "componentType" : 5126, "count" : 615, "type" : "VEC3", "max" : [0.11498157680034637, 1.718475341796875, 0.08981002122163773], "min" : [-0.11498158425092697, 1.4257044792175293, -0.18184210360050201], "name" : "POSITION"}, {"bufferView" : 6, "byteOffset" : 12, "componentType" : 5126, "count" : 615, "type" : "VEC3", "max" : [0.9835405349731445, 0.9984049797058105, 0.9999688863754272], "min" : [-0.9783423542976379, -0.9981144666671753, -0.9970542192459106], "name" : "NORMAL"}, {"bufferView" : 6, "byteOffset" : 24, "componentType" : 5126, "count" : 615, "type" : "VEC2", "max" : [0.75, 0.625], "min" : [0.6249999403953552, 0.125], "name" : "TEXCOORD_0"}, {"bufferView" : 0, "byteOffset" : 8664, "componentType" : 5123, "count" : 624, "type" : "SCALAR", "max" : [505], "min" : [0]}, {"bufferView" : 7, "byteOffset" : 0, "componentType" : 5126, "count" : 506, "type" : "VEC3", "max" : [0.20276273787021637, 0.9787685871124268, 0.10535991936922073], "min" : [-0.20276273787021637, 0.14521658420562744, -0.13198256492614746], "name" : "POSITION"}, {"bufferView" : 7, "byteOffset" : 12, "componentType" : 5126, "count" : 506, "type" : "VEC3", "max" : [0.9345380663871765, 1.0000044107437134, 0.7651157975196838], "min" : [-0.9345380663871765, -0.9966813921928406, -0.9919682145118713], "name" : "NORMAL"}, {"bufferView" : 7, "byteOffset" : 24, "componentType" : 5126, "count" : 506, "type" : "VEC2", "max" : [0.4749441146850586, 0.625], "min" : [0.25, 0.125], "name" : "TEXCOORD_0"}, {"bufferView" : 0, "byteOffset" : 9912, "componentType" : 5123, "count" : 720, "type" : "SCALAR", "max" : [583], "min" : [0]}, {"bufferView" : 8, "byteOffset" : 0, "componentType" : 5126, "count" : 584, "type" : "VEC3", "max" : [0.6447979807853699, 1.3710834980010986, 0.13805270195007324], "min" : [-0.6447979807853699, 0.9417413473129272, -0.1615810990333557], "name" : "POSITION"}, {"bufferView" : 8, "byteOffset" : 12, "componentType" : 5126, "count" : 584, "type" : "VEC3", "max" : [0.8378027081489563, 0.8583923578262329, 0.9975218772888184], "min" : [-0.8378027677536011, -0.7926075458526611, -0.9959047436714172], "name" : "NORMAL"}, {"bufferView" : 8, "byteOffset" : 24, "componentType" : 5126, "count" : 584, "type" : "VEC2", "max" : [0.7334195375442505, 0.625], "min" : [0.44911912083625793, 0.12499994039535522], "name" : "TEXCOORD_0"}, {"bufferView" : 0, "byteOffset" : 11352, "componentType" : 5123, "count" : 1020, "type" : "SCALAR", "max" : [817], "min" : [0]}, {"bufferView" : 9, "byteOffset" : 0, "componentType" : 5126, "count" : 818, "type" : "VEC3", "max" : [0.639295220375061, 1.392496109008789, 0.15714262425899506], "min" : [-0.639295220375061, 0.8954957723617554, -0.18043150007724762], "name" : "POSITION"}, {"bufferView" : 9, "byteOffset" : 12, "componentType" : 5126, "count" : 818, "type" : "VEC3", "max" : [0.8535892367362976, 1.0000044107437134, 0.9848464727401733], "min" : [-0.8535893559455872, -0.9598022699356079, -0.9995158314704895], "name" : "NORMAL"}, {"bufferView" : 9, "byteOffset" : 24, "componentType" : 5126, "count" : 818, "type" : "VEC2", "max" : [0.7334195375442505, 1], "min" : [0, 0.12499994039535522], "name" : "TEXCOORD_0"}, {"bufferView" : 0, "byteOffset" : 13392, "componentType" : 5123, "count" : 576, "type" : "SCALAR", "max" : [459], "min" : [0]}, {"bufferView" : 10, "byteOffset" : 0, "componentType" : 5126, "count" : 460, "type" : "VEC3", "max" : [0.16827744245529175, 0.1535058617591858, 0.2120920568704605], "min" : [-0.16827744245529175, -0.0016603469848632812, -0.07864661514759064], "name" : "POSITION"}, {"bufferView" : 10, "byteOffset" : 12, "componentType" : 5126, "count" : 460, "type" : "VEC3", "max" : [0.9998908638954163, 0.9272140860557556, 0.7667095065116882], "min" : [-0.9998908638954163, -0.7732997536659241, -0.7665886878967285], "name" : "NORMAL"}, {"bufferView" : 10, "byteOffset" : 24, "componentType" : 5126, "count" : 460, "type" : "VEC2", "max" : [0.375, 0.5625], "min" : [0.3125, 0.18749994039535522], "name" : "TEXCOORD_0"}], "asset" : {"generator" : "Aspose.3D 22.10", "version" : "2.0"}, "buffers" : [{"uri" : "data:application/octet-stream;base64,", "byteLength" : 247292}], "bufferViews" : [{"buffer" : 0, "byteOffset" : 0, "byteLength" : 14544, "target" : 34963}, {"buffer" : 0, "byteOffset" : 14548, "byteLength" : 13824, "byteStride" : 32, "target" : 34962}, {"buffer" : 0, "byteOffset" : 28376, "byteLength" : 98688, "byteStride" : 32, "target" : 34962}, {"buffer" : 0, "byteOffset" : 127068, "byteLength" : 384, "byteStride" : 32, "target" : 34962}, {"buffer" : 0, "byteOffset" : 127456, "byteLength" : 384, "byteStride" : 32, "target" : 34962}, {"buffer" : 0, "byteOffset" : 127844, "byteLength" : 768, "byteStride" : 32, "target" : 34962}, {"buffer" : 0, "byteOffset" : 128616, "byteLength" : 24576, "byteStride" : 32, "target" : 34962}, {"buffer" : 0, "byteOffset" : 153196, "byteLength" : 19968, "byteStride" : 32, "target" : 34962}, {"buffer" : 0, "byteOffset" : 173168, "byteLength" : 23040, "byteStride" : 32, "target" : 34962}, {"buffer" : 0, "byteOffset" : 196212, "byteLength" : 32640, "byteStride" : 32, "target" : 34962}, {"buffer" : 0, "byteOffset" : 228856, "byteLength" : 18432, "byteStride" : 32, "target" : 34962}], "materials" : [{"name" : "Material", "pbrMetallicRoughness" : {"baseColorFactor" : [0.800000011920929, 0.800000011920929, 0.800000011920929, 1], "metallicFactor" : 0, "roughnessFactor" : 0.4000000059604645}, "emissiveFactor" : [0, 0, 0], "alphaMode" : "OPAQUE", "doubleSided" : true}, {"name" : "simple.skin", "pbrMetallicRoughness" : {"baseColorFactor" : [0.800000011920929, 0.48000001907348633, 0.48000001907348633, 1], "metallicFactor" : 0, "roughnessFactor" : 0.800000011920929}, "emissiveFactor" : [0, 0, 0], "alphaMode" : "OPAQUE", "doubleSided" : true}, {"name" : "simple.eye", "pbrMetallicRoughness" : {"baseColorFactor" : [0, 0, 0, 1], "metallicFactor" : 0, "roughnessFactor" : 0.10000000149011612}, "emissiveFactor" : [0, 0, 0], "alphaMode" : "OPAQUE", "doubleSided" : true}, {"name" : "simple.line", "pbrMetallicRoughness" : {"baseColorFactor" : [0.09504126757383347, 0.012722048908472061, 0.017869992181658745, 1], "metallicFactor" : 0, "roughnessFactor" : 1}, "emissiveFactor" : [0, 0, 0], "alphaMode" : "OPAQUE", "doubleSided" : true}, {"name" : "simple.hair", "pbrMetallicRoughness" : {"baseColorFactor" : [0.05000000074505806, 0.01919998787343502, 0.01499998290091753, 1], "metallicFactor" : 0, "roughnessFactor" : 0.5}, "emissiveFactor" : [0, 0, 0], "alphaMode" : "OPAQUE", "doubleSided" : true}, {"name" : "simple.hair", "pbrMetallicRoughness" : {"baseColorFactor" : [0.05000000074505806, 0.01919998787343502, 0.01499998290091753, 1], "metallicFactor" : 0, "roughnessFactor" : 0.5}, "emissiveFactor" : [0, 0, 0], "alphaMode" : "OPAQUE", "doubleSided" : true}, {"name" : "simple.pants", "pbrMetallicRoughness" : {"baseColorFactor" : [0.010000002570450306, 0.019000018015503883, 0.10000000149011612, 1], "metallicFactor" : 0, "roughnessFactor" : 0.949999988079071}, "emissiveFactor" : [0, 0, 0], "alphaMode" : "OPAQUE", "doubleSided" : true}, {"name" : "simple.shirt", "pbrMetallicRoughness" : {"baseColorFactor" : [0, 0, 0, 1], "metallicFactor" : 0, "roughnessFactor" : 0.9599999785423279}, "emissiveFactor" : [0, 0, 0], "alphaMode" : "OPAQUE", "doubleSided" : true}, {"name" : "simple.jacket", "pbrMetallicRoughness" : {"baseColorFactor" : [0.01838052272796631, 0.01838052272796631, 0.01838052272796631, 1], "metallicFactor" : 0, "roughnessFactor" : 0.949999988079071}, "emissiveFactor" : [0, 0, 0], "alphaMode" : "OPAQUE", "doubleSided" : true}, {"name" : "simple.shoes", "pbrMetallicRoughness" : {"baseColorFactor" : [0.03998627886176109, 0.029341384768486023, 0.029341384768486023, 1], "metallicFactor" : 0, "roughnessFactor" : 0.699999988079071}, "emissiveFactor" : [0, 0, 0], "alphaMode" : "OPAQUE", "doubleSided" : true}], "meshes" : [{"primitives" : [{"attributes" : {"POSITION" : 1, "NORMAL" : 2, "TEXCOORD_0" : 3}, "indices" : 0, "material" : 0, "mode" : 4}]}, {"primitives" : [{"attributes" : {"POSITION" : 5, "NORMAL" : 6, "TEXCOORD_0" : 7}, "indices" : 4, "material" : 1, "mode" : 4}, {"attributes" : {"POSITION" : 9, "NORMAL" : 10, "TEXCOORD_0" : 11}, "indices" : 8, "material" : 2, "mode" : 4}, {"attributes" : {"POSITION" : 13, "NORMAL" : 14, "TEXCOORD_0" : 15}, "indices" : 12, "material" : 3, "mode" : 4}, {"attributes" : {"POSITION" : 17, "NORMAL" : 18, "TEXCOORD_0" : 19}, "indices" : 16, "material" : 4, "mode" : 4}]}, {"primitives" : [{"attributes" : {"POSITION" : 21, "NORMAL" : 22, "TEXCOORD_0" : 23}, "indices" : 20, "material" : 5, "mode" : 4}]}, {"primitives" : [{"attributes" : {"POSITION" : 25, "NORMAL" : 26, "TEXCOORD_0" : 27}, "indices" : 24, "material" : 6, "mode" : 4}]}, {"primitives" : [{"attributes" : {"POSITION" : 29, "NORMAL" : 30, "TEXCOORD_0" : 31}, "indices" : 28, "material" : 7, "mode" : 4}]}, {"primitives" : [{"attributes" : {"POSITION" : 33, "NORMAL" : 34, "TEXCOORD_0" : 35}, "indices" : 32, "material" : 8, "mode" : 4}]}, {"primitives" : [{"attributes" : {"POSITION" : 37, "NORMAL" : 38, "TEXCOORD_0" : 39}, "indices" : 36, "material" : 9, "mode" : 4}]}], "nodes" : [{"mesh" : 0, "name" : "simple.frame"}, {"mesh" : 1, "name" : "simple.body"}, {"mesh" : 2, "name" : "simple.hair.001"}, {"mesh" : 3, "name" : "simple.pants"}, {"mesh" : 4, "name" : "simple.shirt.001"}, {"mesh" : 5, "name" : "simple.jacket"}, {"mesh" : 6, "name" : "simple.shoes"}], "scene" : 0, "scenes" : [{"nodes" : [0, 1, 2, 3, 4, 5, 6]}]}